<mxfile host="app.diagrams.net" modified="2023-10-19T00:48:47.522Z" agent="Mozilla/5.0 (Windows NT 10.0; Win64; x64) AppleWebKit/537.36 (KHTML, like Gecko) Chrome/118.0.0.0 Safari/537.36" etag="UvpEfodow_i_p0Jv3x3Q" version="22.0.4" type="device">
  <diagram name="Page-1" id="c7488fd3-1785-93aa-aadb-54a6760d102a">
    <mxGraphModel dx="2440" dy="882" grid="1" gridSize="10" guides="1" tooltips="1" connect="1" arrows="1" fold="1" page="1" pageScale="1" pageWidth="1100" pageHeight="850" background="none" math="0" shadow="0">
      <root>
        <mxCell id="0" />
        <mxCell id="1" parent="0" />
        <mxCell id="2b4e8129b02d487f-1" value="Foguete - Arduino" style="swimlane;html=1;childLayout=stackLayout;horizontal=1;startSize=20;horizontalStack=0;rounded=0;shadow=0;labelBackgroundColor=none;strokeWidth=1;fontFamily=Verdana;fontSize=13;align=center;" parent="1" vertex="1">
          <mxGeometry x="180" y="70" width="1080" height="470" as="geometry" />
        </mxCell>
        <mxCell id="2b4e8129b02d487f-2" value="Foguete" style="swimlane;html=1;startSize=20;horizontal=0;" parent="2b4e8129b02d487f-1" vertex="1">
          <mxGeometry y="20" width="1080" height="150" as="geometry" />
        </mxCell>
        <mxCell id="2b4e8129b02d487f-18" style="edgeStyle=orthogonalEdgeStyle;rounded=0;html=1;labelBackgroundColor=none;startArrow=none;startFill=0;startSize=5;endArrow=classicThin;endFill=1;endSize=5;jettySize=auto;orthogonalLoop=1;strokeWidth=1;fontFamily=Verdana;fontSize=8" parent="2b4e8129b02d487f-2" source="2b4e8129b02d487f-5" target="2b4e8129b02d487f-6" edge="1">
          <mxGeometry relative="1" as="geometry" />
        </mxCell>
        <mxCell id="2b4e8129b02d487f-5" value="" style="ellipse;whiteSpace=wrap;html=1;rounded=0;shadow=0;labelBackgroundColor=none;strokeWidth=1;fontFamily=Verdana;fontSize=8;align=center;" parent="2b4e8129b02d487f-2" vertex="1">
          <mxGeometry x="60" y="60" width="30" height="30" as="geometry" />
        </mxCell>
        <mxCell id="2b4e8129b02d487f-6" value="Ignição de lançamento" style="rounded=1;whiteSpace=wrap;html=1;shadow=0;labelBackgroundColor=none;strokeWidth=1;fontFamily=Verdana;fontSize=8;align=center;" parent="2b4e8129b02d487f-2" vertex="1">
          <mxGeometry x="120" y="56.49999999999997" width="70" height="37" as="geometry" />
        </mxCell>
        <mxCell id="2b4e8129b02d487f-20" style="edgeStyle=orthogonalEdgeStyle;rounded=0;html=1;labelBackgroundColor=none;startArrow=none;startFill=0;startSize=5;endArrow=classicThin;endFill=1;endSize=5;jettySize=auto;orthogonalLoop=1;strokeWidth=1;fontFamily=Verdana;fontSize=8;exitX=1;exitY=0.5;exitDx=0;exitDy=0;" parent="2b4e8129b02d487f-2" source="2b4e8129b02d487f-6" target="2b4e8129b02d487f-8" edge="1">
          <mxGeometry relative="1" as="geometry">
            <mxPoint x="300" y="75" as="sourcePoint" />
          </mxGeometry>
        </mxCell>
        <mxCell id="_OhgN8wv5u2DcPOiO5Zq-30" value="" style="edgeStyle=orthogonalEdgeStyle;rounded=0;orthogonalLoop=1;jettySize=auto;html=1;" parent="2b4e8129b02d487f-2" source="2b4e8129b02d487f-8" target="2b4e8129b02d487f-9" edge="1">
          <mxGeometry relative="1" as="geometry" />
        </mxCell>
        <mxCell id="2b4e8129b02d487f-8" value="" style="ellipse;whiteSpace=wrap;html=1;rounded=0;shadow=0;labelBackgroundColor=none;strokeWidth=2;fontFamily=Verdana;fontSize=8;align=center;" parent="2b4e8129b02d487f-2" vertex="1">
          <mxGeometry x="240" y="60" width="30" height="30" as="geometry" />
        </mxCell>
        <mxCell id="hftvNUAuiPIUg7oMxa4l-2" value="" style="edgeStyle=orthogonalEdgeStyle;rounded=0;orthogonalLoop=1;jettySize=auto;html=1;" edge="1" parent="2b4e8129b02d487f-2" source="2b4e8129b02d487f-9" target="hftvNUAuiPIUg7oMxa4l-1">
          <mxGeometry relative="1" as="geometry" />
        </mxCell>
        <mxCell id="2b4e8129b02d487f-9" value="Foguete é lançado" style="rounded=1;whiteSpace=wrap;html=1;shadow=0;labelBackgroundColor=none;strokeWidth=1;fontFamily=Verdana;fontSize=8;align=center;" parent="2b4e8129b02d487f-2" vertex="1">
          <mxGeometry x="310" y="56.49999999999997" width="70" height="37" as="geometry" />
        </mxCell>
        <mxCell id="_OhgN8wv5u2DcPOiO5Zq-17" value="Iniciar" style="text;html=1;strokeColor=none;fillColor=none;align=center;verticalAlign=middle;whiteSpace=wrap;rounded=0;" parent="2b4e8129b02d487f-2" vertex="1">
          <mxGeometry x="45" y="94" width="60" height="30" as="geometry" />
        </mxCell>
        <mxCell id="_OhgN8wv5u2DcPOiO5Zq-29" value="&lt;font style=&quot;font-size: 8px;&quot;&gt;Contagem de 3 segundos&lt;/font&gt;" style="text;html=1;strokeColor=none;fillColor=none;align=center;verticalAlign=middle;whiteSpace=wrap;rounded=0;" parent="2b4e8129b02d487f-2" vertex="1">
          <mxGeometry x="225" y="20" width="60" height="30" as="geometry" />
        </mxCell>
        <mxCell id="hftvNUAuiPIUg7oMxa4l-1" value="" style="ellipse;whiteSpace=wrap;html=1;rounded=0;shadow=0;labelBackgroundColor=none;strokeWidth=2;fontFamily=Verdana;fontSize=8;align=center;" vertex="1" parent="2b4e8129b02d487f-2">
          <mxGeometry x="430" y="60" width="30" height="30" as="geometry" />
        </mxCell>
        <mxCell id="hftvNUAuiPIUg7oMxa4l-3" value="&lt;font style=&quot;font-size: 8px;&quot;&gt;Contagem de 10 segundos&lt;/font&gt;" style="text;html=1;strokeColor=none;fillColor=none;align=center;verticalAlign=middle;whiteSpace=wrap;rounded=0;" vertex="1" parent="2b4e8129b02d487f-2">
          <mxGeometry x="415" y="26.5" width="60" height="30" as="geometry" />
        </mxCell>
        <mxCell id="hftvNUAuiPIUg7oMxa4l-5" style="edgeStyle=orthogonalEdgeStyle;rounded=0;orthogonalLoop=1;jettySize=auto;html=1;exitX=0.5;exitY=1;exitDx=0;exitDy=0;" edge="1" parent="2b4e8129b02d487f-2" source="hftvNUAuiPIUg7oMxa4l-3" target="hftvNUAuiPIUg7oMxa4l-3">
          <mxGeometry relative="1" as="geometry" />
        </mxCell>
        <mxCell id="hftvNUAuiPIUg7oMxa4l-17" value="" style="edgeStyle=orthogonalEdgeStyle;rounded=0;orthogonalLoop=1;jettySize=auto;html=1;entryX=0;entryY=0.5;entryDx=0;entryDy=0;" edge="1" parent="2b4e8129b02d487f-2" source="hftvNUAuiPIUg7oMxa4l-9" target="hftvNUAuiPIUg7oMxa4l-15">
          <mxGeometry relative="1" as="geometry" />
        </mxCell>
        <mxCell id="hftvNUAuiPIUg7oMxa4l-9" value="Medidor de altitude atingiu 40m" style="rounded=1;whiteSpace=wrap;html=1;shadow=0;labelBackgroundColor=none;strokeWidth=1;fontFamily=Verdana;fontSize=8;align=center;" vertex="1" parent="2b4e8129b02d487f-2">
          <mxGeometry x="630" y="56.5" width="70" height="37" as="geometry" />
        </mxCell>
        <mxCell id="hftvNUAuiPIUg7oMxa4l-10" value="" style="endArrow=classic;html=1;rounded=0;entryX=0;entryY=0.5;entryDx=0;entryDy=0;exitX=1;exitY=0.5;exitDx=0;exitDy=0;" edge="1" parent="2b4e8129b02d487f-2" source="hftvNUAuiPIUg7oMxa4l-1" target="hftvNUAuiPIUg7oMxa4l-9">
          <mxGeometry width="50" height="50" relative="1" as="geometry">
            <mxPoint x="560" y="100" as="sourcePoint" />
            <mxPoint x="610" y="50" as="targetPoint" />
          </mxGeometry>
        </mxCell>
        <mxCell id="hftvNUAuiPIUg7oMxa4l-15" value="" style="ellipse;whiteSpace=wrap;html=1;rounded=0;shadow=0;labelBackgroundColor=none;strokeWidth=2;fontFamily=Verdana;fontSize=8;align=center;" vertex="1" parent="2b4e8129b02d487f-2">
          <mxGeometry x="805" y="60" width="30" height="30" as="geometry" />
        </mxCell>
        <mxCell id="hftvNUAuiPIUg7oMxa4l-16" value="&lt;font style=&quot;font-size: 13px;&quot;&gt;Tempo até o foguete aterrisar&lt;/font&gt;" style="text;html=1;strokeColor=none;fillColor=none;align=center;verticalAlign=middle;whiteSpace=wrap;rounded=0;fontSize=13;" vertex="1" parent="2b4e8129b02d487f-2">
          <mxGeometry x="770" y="20" width="100" height="30" as="geometry" />
        </mxCell>
        <mxCell id="2b4e8129b02d487f-3" value="Luzes" style="swimlane;html=1;startSize=20;horizontal=0;" parent="2b4e8129b02d487f-1" vertex="1">
          <mxGeometry y="170" width="1080" height="150" as="geometry" />
        </mxCell>
        <mxCell id="_OhgN8wv5u2DcPOiO5Zq-35" value="" style="edgeStyle=orthogonalEdgeStyle;rounded=0;orthogonalLoop=1;jettySize=auto;html=1;entryX=0;entryY=0.5;entryDx=0;entryDy=0;" parent="2b4e8129b02d487f-3" source="2b4e8129b02d487f-12" target="_OhgN8wv5u2DcPOiO5Zq-33" edge="1">
          <mxGeometry relative="1" as="geometry">
            <mxPoint x="305" y="68.5" as="targetPoint" />
          </mxGeometry>
        </mxCell>
        <mxCell id="2b4e8129b02d487f-12" value="Luz de alerta acende" style="rounded=1;whiteSpace=wrap;html=1;shadow=0;labelBackgroundColor=none;strokeWidth=1;fontFamily=Verdana;fontSize=8;align=center;" parent="2b4e8129b02d487f-3" vertex="1">
          <mxGeometry x="120" y="49.99999999999996" width="70" height="37" as="geometry" />
        </mxCell>
        <mxCell id="_OhgN8wv5u2DcPOiO5Zq-33" value="Luz de alerta apaga" style="rounded=1;whiteSpace=wrap;html=1;shadow=0;labelBackgroundColor=none;strokeWidth=1;fontFamily=Verdana;fontSize=8;align=center;" parent="2b4e8129b02d487f-3" vertex="1">
          <mxGeometry x="310" y="49.99999999999994" width="70" height="37" as="geometry" />
        </mxCell>
        <mxCell id="2b4e8129b02d487f-4" value="Câmeras" style="swimlane;html=1;startSize=20;horizontal=0;" parent="2b4e8129b02d487f-1" vertex="1">
          <mxGeometry y="320" width="1080" height="150" as="geometry" />
        </mxCell>
        <mxCell id="hftvNUAuiPIUg7oMxa4l-26" value="" style="edgeStyle=orthogonalEdgeStyle;rounded=0;orthogonalLoop=1;jettySize=auto;html=1;entryX=0;entryY=0.5;entryDx=0;entryDy=0;" edge="1" parent="2b4e8129b02d487f-4" source="2b4e8129b02d487f-14" target="hftvNUAuiPIUg7oMxa4l-20">
          <mxGeometry relative="1" as="geometry">
            <mxPoint x="495" y="75" as="targetPoint" />
          </mxGeometry>
        </mxCell>
        <mxCell id="2b4e8129b02d487f-14" value="Câmeras acionam" style="rounded=1;whiteSpace=wrap;html=1;shadow=0;labelBackgroundColor=none;strokeWidth=1;fontFamily=Verdana;fontSize=8;align=center;" parent="2b4e8129b02d487f-4" vertex="1">
          <mxGeometry x="310" y="56.50000000000003" width="70" height="37" as="geometry" />
        </mxCell>
        <mxCell id="hftvNUAuiPIUg7oMxa4l-20" value="Câmeras desligam" style="rounded=1;whiteSpace=wrap;html=1;shadow=0;labelBackgroundColor=none;strokeWidth=1;fontFamily=Verdana;fontSize=8;align=center;" vertex="1" parent="2b4e8129b02d487f-4">
          <mxGeometry x="900" y="56.5" width="70" height="37" as="geometry" />
        </mxCell>
        <mxCell id="2b4e8129b02d487f-24" style="edgeStyle=orthogonalEdgeStyle;rounded=0;html=1;labelBackgroundColor=none;startArrow=none;startFill=0;startSize=5;endArrow=classicThin;endFill=1;endSize=5;jettySize=auto;orthogonalLoop=1;strokeWidth=1;fontFamily=Verdana;fontSize=8" parent="2b4e8129b02d487f-1" source="2b4e8129b02d487f-6" target="2b4e8129b02d487f-12" edge="1">
          <mxGeometry relative="1" as="geometry" />
        </mxCell>
        <mxCell id="_OhgN8wv5u2DcPOiO5Zq-36" value="" style="edgeStyle=orthogonalEdgeStyle;rounded=0;orthogonalLoop=1;jettySize=auto;html=1;" parent="2b4e8129b02d487f-1" source="2b4e8129b02d487f-9" target="_OhgN8wv5u2DcPOiO5Zq-33" edge="1">
          <mxGeometry relative="1" as="geometry" />
        </mxCell>
        <mxCell id="hftvNUAuiPIUg7oMxa4l-8" value="" style="edgeStyle=orthogonalEdgeStyle;rounded=0;orthogonalLoop=1;jettySize=auto;html=1;" edge="1" parent="2b4e8129b02d487f-1" source="_OhgN8wv5u2DcPOiO5Zq-33" target="2b4e8129b02d487f-14">
          <mxGeometry relative="1" as="geometry" />
        </mxCell>
        <mxCell id="hftvNUAuiPIUg7oMxa4l-22" value="" style="edgeStyle=orthogonalEdgeStyle;rounded=0;orthogonalLoop=1;jettySize=auto;html=1;entryX=0.5;entryY=0;entryDx=0;entryDy=0;" edge="1" parent="2b4e8129b02d487f-1" source="hftvNUAuiPIUg7oMxa4l-15" target="hftvNUAuiPIUg7oMxa4l-20">
          <mxGeometry relative="1" as="geometry">
            <mxPoint x="960" y="330" as="targetPoint" />
            <Array as="points">
              <mxPoint x="935" y="95" />
            </Array>
          </mxGeometry>
        </mxCell>
        <mxCell id="_OhgN8wv5u2DcPOiO5Zq-1" value="Arestas" style="swimlane;html=1;startSize=20;horizontal=0;" parent="1" vertex="1">
          <mxGeometry x="180" y="540" width="1080" height="150" as="geometry" />
        </mxCell>
        <mxCell id="hftvNUAuiPIUg7oMxa4l-28" value="" style="edgeStyle=orthogonalEdgeStyle;rounded=0;orthogonalLoop=1;jettySize=auto;html=1;" edge="1" parent="_OhgN8wv5u2DcPOiO5Zq-1" source="_OhgN8wv5u2DcPOiO5Zq-3" target="hftvNUAuiPIUg7oMxa4l-21">
          <mxGeometry relative="1" as="geometry">
            <mxPoint x="695" y="75" as="targetPoint" />
          </mxGeometry>
        </mxCell>
        <mxCell id="_OhgN8wv5u2DcPOiO5Zq-3" value="Arestas são acionadas" style="rounded=1;whiteSpace=wrap;html=1;shadow=0;labelBackgroundColor=none;strokeWidth=1;fontFamily=Verdana;fontSize=8;align=center;" parent="_OhgN8wv5u2DcPOiO5Zq-1" vertex="1">
          <mxGeometry x="510" y="56.50000000000003" width="70" height="37" as="geometry" />
        </mxCell>
        <mxCell id="hftvNUAuiPIUg7oMxa4l-21" value="Arestas fecham" style="rounded=1;whiteSpace=wrap;html=1;shadow=0;labelBackgroundColor=none;strokeWidth=1;fontFamily=Verdana;fontSize=8;align=center;" vertex="1" parent="_OhgN8wv5u2DcPOiO5Zq-1">
          <mxGeometry x="900" y="56.5" width="70" height="37" as="geometry" />
        </mxCell>
        <mxCell id="_OhgN8wv5u2DcPOiO5Zq-9" value="Paraquedas" style="swimlane;html=1;startSize=20;horizontal=0;" parent="1" vertex="1">
          <mxGeometry x="180" y="690" width="1080" height="150" as="geometry" />
        </mxCell>
        <mxCell id="_OhgN8wv5u2DcPOiO5Zq-11" value="Paraquedas acionado" style="rounded=1;whiteSpace=wrap;html=1;shadow=0;labelBackgroundColor=none;strokeWidth=1;fontFamily=Verdana;fontSize=8;align=center;" parent="_OhgN8wv5u2DcPOiO5Zq-9" vertex="1">
          <mxGeometry x="630" y="56.50000000000003" width="70" height="37" as="geometry" />
        </mxCell>
        <mxCell id="hftvNUAuiPIUg7oMxa4l-6" value="" style="edgeStyle=orthogonalEdgeStyle;rounded=0;orthogonalLoop=1;jettySize=auto;html=1;entryX=0.5;entryY=0;entryDx=0;entryDy=0;" edge="1" parent="1" source="hftvNUAuiPIUg7oMxa4l-1" target="_OhgN8wv5u2DcPOiO5Zq-3">
          <mxGeometry relative="1" as="geometry">
            <mxPoint x="730" y="220" as="targetPoint" />
          </mxGeometry>
        </mxCell>
        <mxCell id="hftvNUAuiPIUg7oMxa4l-14" value="" style="endArrow=classic;html=1;rounded=0;exitX=0.5;exitY=1;exitDx=0;exitDy=0;entryX=0.5;entryY=0;entryDx=0;entryDy=0;" edge="1" parent="1" source="hftvNUAuiPIUg7oMxa4l-9" target="_OhgN8wv5u2DcPOiO5Zq-11">
          <mxGeometry width="50" height="50" relative="1" as="geometry">
            <mxPoint x="850" y="250" as="sourcePoint" />
            <mxPoint x="900" y="200" as="targetPoint" />
          </mxGeometry>
        </mxCell>
        <mxCell id="hftvNUAuiPIUg7oMxa4l-24" value="" style="edgeStyle=orthogonalEdgeStyle;rounded=0;orthogonalLoop=1;jettySize=auto;html=1;" edge="1" parent="1" source="hftvNUAuiPIUg7oMxa4l-20" target="hftvNUAuiPIUg7oMxa4l-21">
          <mxGeometry relative="1" as="geometry" />
        </mxCell>
      </root>
    </mxGraphModel>
  </diagram>
</mxfile>
